<?xml version="1.0" encoding="utf-8"?>
<!-- Generator: Adobe Illustrator 12.0.0, SVG Export Plug-In . SVG Version: 6.00 Build 51448)  -->
<!DOCTYPE svg PUBLIC "-//W3C//DTD SVG 1.1//EN" "http://www.w3.org/Graphics/SVG/1.1/DTD/svg11.dtd" [
	<!ENTITY ns_svg "http://www.w3.org/2000/svg">
	<!ENTITY ns_xlink "http://www.w3.org/1999/xlink">
]>
<svg  version="1.1" id="Layer_1" xmlns="&ns_svg;" xmlns:xlink="&ns_xlink;" width="250" height="200" viewBox="0 0 250 200"
	 overflow="visible" enable-background="new 0 0 250 200" xml:space="preserve">
<path fill="none" stroke="#FFFFFE" stroke-width="2.041" stroke-linecap="round" stroke-linejoin="round" d="M105.102,84.997
	c0,10.989,8.909,19.897,19.898,19.897c10.988,0,19.898-8.909,19.898-19.897c0-10.989-8.91-19.898-19.898-19.898
	C114.011,65.099,105.102,74.008,105.102,84.997z M167.857,51.324h-21.43c-1.531-6.122-3.061-12.245-9.184-12.245h-24.49
	c-6.122,0-7.653,6.122-9.184,12.245H82.141c-3.367,0-6.122,2.755-6.122,6.122v55.102c0,3.367,2.755,6.122,6.122,6.122h85.714
	c3.367,0,6.121-2.755,6.121-6.122V57.446c0-3.367-2.754-6.122-6.121-6.122H167.857z M125,112.166
	c-15.005,0-27.169-12.163-27.169-27.169c0-15.005,12.164-27.169,27.169-27.169s27.169,12.164,27.169,27.169
	S140.006,112.166,125,112.166z M167.857,69.691h-12.246v-6.122h12.246V69.691z"/>
</svg>
